<svg id="Layer_1" data-name="Layer 1" xmlns="http://www.w3.org/2000/svg" viewBox="0 0 2100.57 2100.57"><defs><style>.cls-1{fill:#060202;stroke:#231915;stroke-miterlimit:10;stroke-width:0.57px;}.cls-2{fill:#fefefe;fill-rule:evenodd;}</style></defs><rect class="cls-1" x="0.28" y="0.28" width="2100" height="2100"/><polygon class="cls-2" points="1029.63 1132.69 1029.63 1409.5 1148.2 1409.5 1148.2 1298.88 1191.6 1250.64 1299.13 1409.5 1441.5 1409.5 1274.07 1165.68 1436.04 981.76 1295.53 981.76 1148.2 1155.26 1148.2 1043.77 1148.2 983.62 1029.63 1089.16 719.46 1365.48 1029.63 1132.69"/><path class="cls-2" d="M1081.69,964l295.16-226.58L975.4,1095,932,1133.65c-6.58.37-13.15.62-20,.62-75.78,0-147.83-23.81-200.41-70.94l66-78.75c42.17,33.61,89.17,51.34,138.66,51.34,31.87,0,49-11,49-29.39v-1.24c0-17.61-14.14-27.41-72.18-40.92C802,943.65,731.83,918,731.83,829.93v-1.12c0-79.49,62.88-136.91,165.57-136.91,72.67,0,129.47,19.59,176,56.8l-59.28,83.71c-39.19-27.53-81.86-42.17-119.8-42.17-28.65,0-42.79,12.28-42.79,27.54V819c0,19.47,14.63,28,73.91,41.54,85.2,18.48,142.37,44.77,156.27,103.43Z" transform="translate(0.28 0.28)"/></svg>